<?xml version="1.0" standalone="no"?>
<!DOCTYPE svg PUBLIC "-//W3C//DTD SVG 1.1//EN" "http://www.w3.org/Graphics/SVG/1.1/DTD/svg11.dtd">
<svg width="564" height="564" version="1.1" xmlns="http://www.w3.org/2000/svg">
  <title>35 by 35 orthogonal maze</title>
  <desc>35 by 35 orthogonal maze generated by The Maze Generator Website (https://www.mazegenerator.net/).</desc>
  <g fill="none" stroke="#000000" stroke-width="2" stroke-linecap="square">
    <line x1="2" y1="2" x2="274" y2="2" />
    <line x1="290" y1="2" x2="562" y2="2" />
    <line x1="18" y1="18" x2="34" y2="18" />
    <line x1="50" y1="18" x2="66" y2="18" />
    <line x1="98" y1="18" x2="146" y2="18" />
    <line x1="194" y1="18" x2="210" y2="18" />
    <line x1="226" y1="18" x2="258" y2="18" />
    <line x1="290" y1="18" x2="306" y2="18" />
    <line x1="338" y1="18" x2="370" y2="18" />
    <line x1="418" y1="18" x2="434" y2="18" />
    <line x1="450" y1="18" x2="482" y2="18" />
    <line x1="530" y1="18" x2="546" y2="18" />
    <line x1="2" y1="34" x2="50" y2="34" />
    <line x1="82" y1="34" x2="98" y2="34" />
    <line x1="114" y1="34" x2="130" y2="34" />
    <line x1="146" y1="34" x2="290" y2="34" />
    <line x1="338" y1="34" x2="418" y2="34" />
    <line x1="434" y1="34" x2="450" y2="34" />
    <line x1="482" y1="34" x2="498" y2="34" />
    <line x1="546" y1="34" x2="562" y2="34" />
    <line x1="18" y1="50" x2="66" y2="50" />
    <line x1="98" y1="50" x2="146" y2="50" />
    <line x1="162" y1="50" x2="210" y2="50" />
    <line x1="226" y1="50" x2="242" y2="50" />
    <line x1="290" y1="50" x2="306" y2="50" />
    <line x1="322" y1="50" x2="370" y2="50" />
    <line x1="466" y1="50" x2="482" y2="50" />
    <line x1="498" y1="50" x2="546" y2="50" />
    <line x1="2" y1="66" x2="18" y2="66" />
    <line x1="34" y1="66" x2="66" y2="66" />
    <line x1="82" y1="66" x2="130" y2="66" />
    <line x1="194" y1="66" x2="210" y2="66" />
    <line x1="242" y1="66" x2="258" y2="66" />
    <line x1="274" y1="66" x2="386" y2="66" />
    <line x1="402" y1="66" x2="434" y2="66" />
    <line x1="450" y1="66" x2="466" y2="66" />
    <line x1="482" y1="66" x2="498" y2="66" />
    <line x1="530" y1="66" x2="546" y2="66" />
    <line x1="18" y1="82" x2="50" y2="82" />
    <line x1="66" y1="82" x2="114" y2="82" />
    <line x1="130" y1="82" x2="178" y2="82" />
    <line x1="210" y1="82" x2="258" y2="82" />
    <line x1="274" y1="82" x2="290" y2="82" />
    <line x1="306" y1="82" x2="338" y2="82" />
    <line x1="354" y1="82" x2="370" y2="82" />
    <line x1="434" y1="82" x2="450" y2="82" />
    <line x1="498" y1="82" x2="514" y2="82" />
    <line x1="546" y1="82" x2="562" y2="82" />
    <line x1="2" y1="98" x2="18" y2="98" />
    <line x1="50" y1="98" x2="82" y2="98" />
    <line x1="114" y1="98" x2="194" y2="98" />
    <line x1="258" y1="98" x2="274" y2="98" />
    <line x1="322" y1="98" x2="354" y2="98" />
    <line x1="370" y1="98" x2="386" y2="98" />
    <line x1="402" y1="98" x2="434" y2="98" />
    <line x1="18" y1="114" x2="34" y2="114" />
    <line x1="82" y1="114" x2="178" y2="114" />
    <line x1="194" y1="114" x2="210" y2="114" />
    <line x1="242" y1="114" x2="258" y2="114" />
    <line x1="274" y1="114" x2="290" y2="114" />
    <line x1="306" y1="114" x2="338" y2="114" />
    <line x1="354" y1="114" x2="370" y2="114" />
    <line x1="386" y1="114" x2="418" y2="114" />
    <line x1="450" y1="114" x2="466" y2="114" />
    <line x1="482" y1="114" x2="514" y2="114" />
    <line x1="2" y1="130" x2="18" y2="130" />
    <line x1="34" y1="130" x2="82" y2="130" />
    <line x1="114" y1="130" x2="130" y2="130" />
    <line x1="178" y1="130" x2="194" y2="130" />
    <line x1="210" y1="130" x2="226" y2="130" />
    <line x1="242" y1="130" x2="322" y2="130" />
    <line x1="338" y1="130" x2="354" y2="130" />
    <line x1="370" y1="130" x2="386" y2="130" />
    <line x1="418" y1="130" x2="434" y2="130" />
    <line x1="466" y1="130" x2="482" y2="130" />
    <line x1="514" y1="130" x2="530" y2="130" />
    <line x1="18" y1="146" x2="66" y2="146" />
    <line x1="82" y1="146" x2="114" y2="146" />
    <line x1="162" y1="146" x2="178" y2="146" />
    <line x1="194" y1="146" x2="258" y2="146" />
    <line x1="322" y1="146" x2="514" y2="146" />
    <line x1="34" y1="162" x2="50" y2="162" />
    <line x1="66" y1="162" x2="114" y2="162" />
    <line x1="146" y1="162" x2="194" y2="162" />
    <line x1="258" y1="162" x2="274" y2="162" />
    <line x1="290" y1="162" x2="306" y2="162" />
    <line x1="338" y1="162" x2="386" y2="162" />
    <line x1="418" y1="162" x2="466" y2="162" />
    <line x1="498" y1="162" x2="546" y2="162" />
    <line x1="2" y1="178" x2="34" y2="178" />
    <line x1="50" y1="178" x2="66" y2="178" />
    <line x1="98" y1="178" x2="114" y2="178" />
    <line x1="130" y1="178" x2="210" y2="178" />
    <line x1="226" y1="178" x2="258" y2="178" />
    <line x1="386" y1="178" x2="418" y2="178" />
    <line x1="466" y1="178" x2="514" y2="178" />
    <line x1="18" y1="194" x2="50" y2="194" />
    <line x1="162" y1="194" x2="178" y2="194" />
    <line x1="242" y1="194" x2="274" y2="194" />
    <line x1="306" y1="194" x2="338" y2="194" />
    <line x1="354" y1="194" x2="370" y2="194" />
    <line x1="418" y1="194" x2="434" y2="194" />
    <line x1="482" y1="194" x2="498" y2="194" />
    <line x1="514" y1="194" x2="562" y2="194" />
    <line x1="2" y1="210" x2="18" y2="210" />
    <line x1="50" y1="210" x2="66" y2="210" />
    <line x1="82" y1="210" x2="114" y2="210" />
    <line x1="146" y1="210" x2="162" y2="210" />
    <line x1="178" y1="210" x2="226" y2="210" />
    <line x1="322" y1="210" x2="338" y2="210" />
    <line x1="370" y1="210" x2="386" y2="210" />
    <line x1="402" y1="210" x2="418" y2="210" />
    <line x1="434" y1="210" x2="450" y2="210" />
    <line x1="18" y1="226" x2="50" y2="226" />
    <line x1="66" y1="226" x2="82" y2="226" />
    <line x1="114" y1="226" x2="130" y2="226" />
    <line x1="162" y1="226" x2="178" y2="226" />
    <line x1="194" y1="226" x2="210" y2="226" />
    <line x1="258" y1="226" x2="290" y2="226" />
    <line x1="306" y1="226" x2="322" y2="226" />
    <line x1="354" y1="226" x2="370" y2="226" />
    <line x1="386" y1="226" x2="402" y2="226" />
    <line x1="466" y1="226" x2="498" y2="226" />
    <line x1="530" y1="226" x2="562" y2="226" />
    <line x1="2" y1="242" x2="18" y2="242" />
    <line x1="50" y1="242" x2="66" y2="242" />
    <line x1="82" y1="242" x2="114" y2="242" />
    <line x1="130" y1="242" x2="146" y2="242" />
    <line x1="178" y1="242" x2="194" y2="242" />
    <line x1="210" y1="242" x2="242" y2="242" />
    <line x1="274" y1="242" x2="306" y2="242" />
    <line x1="322" y1="242" x2="354" y2="242" />
    <line x1="370" y1="242" x2="386" y2="242" />
    <line x1="418" y1="242" x2="466" y2="242" />
    <line x1="498" y1="242" x2="514" y2="242" />
    <line x1="34" y1="258" x2="82" y2="258" />
    <line x1="98" y1="258" x2="114" y2="258" />
    <line x1="178" y1="258" x2="226" y2="258" />
    <line x1="242" y1="258" x2="274" y2="258" />
    <line x1="338" y1="258" x2="354" y2="258" />
    <line x1="370" y1="258" x2="434" y2="258" />
    <line x1="466" y1="258" x2="498" y2="258" />
    <line x1="530" y1="258" x2="546" y2="258" />
    <line x1="66" y1="274" x2="98" y2="274" />
    <line x1="146" y1="274" x2="162" y2="274" />
    <line x1="194" y1="274" x2="258" y2="274" />
    <line x1="290" y1="274" x2="306" y2="274" />
    <line x1="322" y1="274" x2="338" y2="274" />
    <line x1="402" y1="274" x2="418" y2="274" />
    <line x1="434" y1="274" x2="482" y2="274" />
    <line x1="2" y1="290" x2="34" y2="290" />
    <line x1="114" y1="290" x2="130" y2="290" />
    <line x1="178" y1="290" x2="194" y2="290" />
    <line x1="242" y1="290" x2="290" y2="290" />
    <line x1="306" y1="290" x2="322" y2="290" />
    <line x1="338" y1="290" x2="370" y2="290" />
    <line x1="386" y1="290" x2="434" y2="290" />
    <line x1="450" y1="290" x2="466" y2="290" />
    <line x1="546" y1="290" x2="562" y2="290" />
    <line x1="34" y1="306" x2="66" y2="306" />
    <line x1="98" y1="306" x2="146" y2="306" />
    <line x1="194" y1="306" x2="226" y2="306" />
    <line x1="290" y1="306" x2="306" y2="306" />
    <line x1="322" y1="306" x2="338" y2="306" />
    <line x1="354" y1="306" x2="386" y2="306" />
    <line x1="434" y1="306" x2="450" y2="306" />
    <line x1="466" y1="306" x2="482" y2="306" />
    <line x1="498" y1="306" x2="514" y2="306" />
    <line x1="18" y1="322" x2="82" y2="322" />
    <line x1="98" y1="322" x2="114" y2="322" />
    <line x1="130" y1="322" x2="162" y2="322" />
    <line x1="178" y1="322" x2="194" y2="322" />
    <line x1="258" y1="322" x2="322" y2="322" />
    <line x1="386" y1="322" x2="402" y2="322" />
    <line x1="418" y1="322" x2="434" y2="322" />
    <line x1="466" y1="322" x2="482" y2="322" />
    <line x1="514" y1="322" x2="546" y2="322" />
    <line x1="66" y1="338" x2="146" y2="338" />
    <line x1="162" y1="338" x2="178" y2="338" />
    <line x1="210" y1="338" x2="226" y2="338" />
    <line x1="242" y1="338" x2="258" y2="338" />
    <line x1="306" y1="338" x2="322" y2="338" />
    <line x1="338" y1="338" x2="370" y2="338" />
    <line x1="402" y1="338" x2="466" y2="338" />
    <line x1="498" y1="338" x2="562" y2="338" />
    <line x1="2" y1="354" x2="34" y2="354" />
    <line x1="50" y1="354" x2="82" y2="354" />
    <line x1="98" y1="354" x2="130" y2="354" />
    <line x1="162" y1="354" x2="194" y2="354" />
    <line x1="226" y1="354" x2="274" y2="354" />
    <line x1="322" y1="354" x2="370" y2="354" />
    <line x1="386" y1="354" x2="402" y2="354" />
    <line x1="418" y1="354" x2="482" y2="354" />
    <line x1="498" y1="354" x2="514" y2="354" />
    <line x1="18" y1="370" x2="50" y2="370" />
    <line x1="114" y1="370" x2="162" y2="370" />
    <line x1="178" y1="370" x2="210" y2="370" />
    <line x1="226" y1="370" x2="258" y2="370" />
    <line x1="306" y1="370" x2="338" y2="370" />
    <line x1="354" y1="370" x2="386" y2="370" />
    <line x1="402" y1="370" x2="418" y2="370" />
    <line x1="450" y1="370" x2="482" y2="370" />
    <line x1="514" y1="370" x2="530" y2="370" />
    <line x1="2" y1="386" x2="34" y2="386" />
    <line x1="66" y1="386" x2="82" y2="386" />
    <line x1="98" y1="386" x2="130" y2="386" />
    <line x1="162" y1="386" x2="178" y2="386" />
    <line x1="194" y1="386" x2="226" y2="386" />
    <line x1="258" y1="386" x2="274" y2="386" />
    <line x1="290" y1="386" x2="306" y2="386" />
    <line x1="354" y1="386" x2="370" y2="386" />
    <line x1="418" y1="386" x2="546" y2="386" />
    <line x1="18" y1="402" x2="66" y2="402" />
    <line x1="130" y1="402" x2="146" y2="402" />
    <line x1="178" y1="402" x2="306" y2="402" />
    <line x1="322" y1="402" x2="354" y2="402" />
    <line x1="370" y1="402" x2="386" y2="402" />
    <line x1="402" y1="402" x2="418" y2="402" />
    <line x1="482" y1="402" x2="514" y2="402" />
    <line x1="530" y1="402" x2="546" y2="402" />
    <line x1="2" y1="418" x2="18" y2="418" />
    <line x1="50" y1="418" x2="66" y2="418" />
    <line x1="98" y1="418" x2="210" y2="418" />
    <line x1="274" y1="418" x2="290" y2="418" />
    <line x1="306" y1="418" x2="322" y2="418" />
    <line x1="354" y1="418" x2="434" y2="418" />
    <line x1="450" y1="418" x2="514" y2="418" />
    <line x1="546" y1="418" x2="562" y2="418" />
    <line x1="18" y1="434" x2="50" y2="434" />
    <line x1="66" y1="434" x2="98" y2="434" />
    <line x1="146" y1="434" x2="194" y2="434" />
    <line x1="210" y1="434" x2="226" y2="434" />
    <line x1="290" y1="434" x2="306" y2="434" />
    <line x1="322" y1="434" x2="354" y2="434" />
    <line x1="370" y1="434" x2="386" y2="434" />
    <line x1="402" y1="434" x2="418" y2="434" />
    <line x1="434" y1="434" x2="450" y2="434" />
    <line x1="498" y1="434" x2="530" y2="434" />
    <line x1="50" y1="450" x2="66" y2="450" />
    <line x1="98" y1="450" x2="130" y2="450" />
    <line x1="162" y1="450" x2="178" y2="450" />
    <line x1="194" y1="450" x2="258" y2="450" />
    <line x1="274" y1="450" x2="290" y2="450" />
    <line x1="306" y1="450" x2="338" y2="450" />
    <line x1="386" y1="450" x2="402" y2="450" />
    <line x1="434" y1="450" x2="450" y2="450" />
    <line x1="482" y1="450" x2="498" y2="450" />
    <line x1="34" y1="466" x2="50" y2="466" />
    <line x1="130" y1="466" x2="162" y2="466" />
    <line x1="178" y1="466" x2="226" y2="466" />
    <line x1="242" y1="466" x2="274" y2="466" />
    <line x1="290" y1="466" x2="306" y2="466" />
    <line x1="322" y1="466" x2="354" y2="466" />
    <line x1="386" y1="466" x2="402" y2="466" />
    <line x1="450" y1="466" x2="482" y2="466" />
    <line x1="514" y1="466" x2="562" y2="466" />
    <line x1="2" y1="482" x2="18" y2="482" />
    <line x1="130" y1="482" x2="162" y2="482" />
    <line x1="226" y1="482" x2="242" y2="482" />
    <line x1="306" y1="482" x2="322" y2="482" />
    <line x1="338" y1="482" x2="354" y2="482" />
    <line x1="402" y1="482" x2="434" y2="482" />
    <line x1="466" y1="482" x2="482" y2="482" />
    <line x1="514" y1="482" x2="546" y2="482" />
    <line x1="34" y1="498" x2="82" y2="498" />
    <line x1="98" y1="498" x2="178" y2="498" />
    <line x1="210" y1="498" x2="226" y2="498" />
    <line x1="242" y1="498" x2="338" y2="498" />
    <line x1="354" y1="498" x2="370" y2="498" />
    <line x1="386" y1="498" x2="402" y2="498" />
    <line x1="434" y1="498" x2="450" y2="498" />
    <line x1="498" y1="498" x2="514" y2="498" />
    <line x1="530" y1="498" x2="546" y2="498" />
    <line x1="34" y1="514" x2="66" y2="514" />
    <line x1="114" y1="514" x2="130" y2="514" />
    <line x1="146" y1="514" x2="162" y2="514" />
    <line x1="226" y1="514" x2="242" y2="514" />
    <line x1="370" y1="514" x2="386" y2="514" />
    <line x1="402" y1="514" x2="434" y2="514" />
    <line x1="466" y1="514" x2="530" y2="514" />
    <line x1="18" y1="530" x2="82" y2="530" />
    <line x1="98" y1="530" x2="114" y2="530" />
    <line x1="130" y1="530" x2="146" y2="530" />
    <line x1="162" y1="530" x2="210" y2="530" />
    <line x1="242" y1="530" x2="338" y2="530" />
    <line x1="354" y1="530" x2="386" y2="530" />
    <line x1="418" y1="530" x2="450" y2="530" />
    <line x1="482" y1="530" x2="514" y2="530" />
    <line x1="546" y1="530" x2="562" y2="530" />
    <line x1="2" y1="546" x2="50" y2="546" />
    <line x1="82" y1="546" x2="98" y2="546" />
    <line x1="194" y1="546" x2="274" y2="546" />
    <line x1="322" y1="546" x2="354" y2="546" />
    <line x1="434" y1="546" x2="450" y2="546" />
    <line x1="514" y1="546" x2="546" y2="546" />
    <line x1="2" y1="562" x2="274" y2="562" />
    <line x1="290" y1="562" x2="562" y2="562" />
    <line x1="2" y1="2" x2="2" y2="562" />
    <line x1="18" y1="66" x2="18" y2="82" />
    <line x1="18" y1="146" x2="18" y2="162" />
    <line x1="18" y1="242" x2="18" y2="274" />
    <line x1="18" y1="306" x2="18" y2="338" />
    <line x1="18" y1="434" x2="18" y2="466" />
    <line x1="18" y1="498" x2="18" y2="530" />
    <line x1="34" y1="18" x2="34" y2="34" />
    <line x1="34" y1="50" x2="34" y2="66" />
    <line x1="34" y1="82" x2="34" y2="114" />
    <line x1="34" y1="162" x2="34" y2="210" />
    <line x1="34" y1="226" x2="34" y2="306" />
    <line x1="34" y1="338" x2="34" y2="354" />
    <line x1="34" y1="402" x2="34" y2="418" />
    <line x1="34" y1="450" x2="34" y2="482" />
    <line x1="34" y1="498" x2="34" y2="514" />
    <line x1="50" y1="98" x2="50" y2="114" />
    <line x1="50" y1="210" x2="50" y2="226" />
    <line x1="50" y1="258" x2="50" y2="290" />
    <line x1="50" y1="322" x2="50" y2="402" />
    <line x1="50" y1="418" x2="50" y2="450" />
    <line x1="50" y1="466" x2="50" y2="498" />
    <line x1="66" y1="18" x2="66" y2="50" />
    <line x1="66" y1="66" x2="66" y2="82" />
    <line x1="66" y1="98" x2="66" y2="130" />
    <line x1="66" y1="146" x2="66" y2="242" />
    <line x1="66" y1="274" x2="66" y2="306" />
    <line x1="66" y1="370" x2="66" y2="386" />
    <line x1="66" y1="402" x2="66" y2="418" />
    <line x1="66" y1="450" x2="66" y2="482" />
    <line x1="66" y1="530" x2="66" y2="562" />
    <line x1="82" y1="2" x2="82" y2="66" />
    <line x1="82" y1="82" x2="82" y2="98" />
    <line x1="82" y1="130" x2="82" y2="146" />
    <line x1="82" y1="178" x2="82" y2="210" />
    <line x1="82" y1="242" x2="82" y2="258" />
    <line x1="82" y1="274" x2="82" y2="322" />
    <line x1="82" y1="338" x2="82" y2="482" />
    <line x1="82" y1="498" x2="82" y2="530" />
    <line x1="98" y1="98" x2="98" y2="130" />
    <line x1="98" y1="178" x2="98" y2="194" />
    <line x1="98" y1="210" x2="98" y2="242" />
    <line x1="98" y1="258" x2="98" y2="274" />
    <line x1="98" y1="290" x2="98" y2="322" />
    <line x1="98" y1="354" x2="98" y2="418" />
    <line x1="98" y1="450" x2="98" y2="546" />
    <line x1="114" y1="34" x2="114" y2="50" />
    <line x1="114" y1="82" x2="114" y2="98" />
    <line x1="114" y1="130" x2="114" y2="146" />
    <line x1="114" y1="178" x2="114" y2="210" />
    <line x1="114" y1="258" x2="114" y2="274" />
    <line x1="114" y1="386" x2="114" y2="402" />
    <line x1="114" y1="418" x2="114" y2="434" />
    <line x1="114" y1="450" x2="114" y2="466" />
    <line x1="114" y1="482" x2="114" y2="498" />
    <line x1="114" y1="546" x2="114" y2="562" />
    <line x1="130" y1="66" x2="130" y2="82" />
    <line x1="130" y1="130" x2="130" y2="226" />
    <line x1="130" y1="242" x2="130" y2="290" />
    <line x1="130" y1="322" x2="130" y2="338" />
    <line x1="130" y1="434" x2="130" y2="450" />
    <line x1="130" y1="514" x2="130" y2="546" />
    <line x1="146" y1="18" x2="146" y2="66" />
    <line x1="146" y1="114" x2="146" y2="162" />
    <line x1="146" y1="178" x2="146" y2="210" />
    <line x1="146" y1="226" x2="146" y2="306" />
    <line x1="146" y1="338" x2="146" y2="402" />
    <line x1="146" y1="418" x2="146" y2="466" />
    <line x1="146" y1="498" x2="146" y2="514" />
    <line x1="146" y1="530" x2="146" y2="562" />
    <line x1="162" y1="2" x2="162" y2="18" />
    <line x1="162" y1="50" x2="162" y2="82" />
    <line x1="162" y1="130" x2="162" y2="146" />
    <line x1="162" y1="210" x2="162" y2="258" />
    <line x1="162" y1="274" x2="162" y2="338" />
    <line x1="162" y1="354" x2="162" y2="370" />
    <line x1="162" y1="386" x2="162" y2="418" />
    <line x1="162" y1="466" x2="162" y2="482" />
    <line x1="162" y1="514" x2="162" y2="546" />
    <line x1="178" y1="18" x2="178" y2="34" />
    <line x1="178" y1="66" x2="178" y2="82" />
    <line x1="178" y1="114" x2="178" y2="146" />
    <line x1="178" y1="194" x2="178" y2="210" />
    <line x1="178" y1="226" x2="178" y2="242" />
    <line x1="178" y1="258" x2="178" y2="290" />
    <line x1="178" y1="306" x2="178" y2="322" />
    <line x1="178" y1="370" x2="178" y2="386" />
    <line x1="178" y1="450" x2="178" y2="514" />
    <line x1="178" y1="546" x2="178" y2="562" />
    <line x1="194" y1="82" x2="194" y2="98" />
    <line x1="194" y1="146" x2="194" y2="162" />
    <line x1="194" y1="178" x2="194" y2="194" />
    <line x1="194" y1="242" x2="194" y2="258" />
    <line x1="194" y1="290" x2="194" y2="354" />
    <line x1="194" y1="434" x2="194" y2="450" />
    <line x1="194" y1="482" x2="194" y2="530" />
    <line x1="210" y1="18" x2="210" y2="34" />
    <line x1="210" y1="50" x2="210" y2="66" />
    <line x1="210" y1="82" x2="210" y2="114" />
    <line x1="210" y1="130" x2="210" y2="146" />
    <line x1="210" y1="162" x2="210" y2="194" />
    <line x1="210" y1="226" x2="210" y2="242" />
    <line x1="210" y1="274" x2="210" y2="290" />
    <line x1="210" y1="322" x2="210" y2="338" />
    <line x1="210" y1="354" x2="210" y2="386" />
    <line x1="210" y1="418" x2="210" y2="434" />
    <line x1="210" y1="466" x2="210" y2="514" />
    <line x1="226" y1="2" x2="226" y2="18" />
    <line x1="226" y1="34" x2="226" y2="66" />
    <line x1="226" y1="98" x2="226" y2="130" />
    <line x1="226" y1="146" x2="226" y2="226" />
    <line x1="226" y1="258" x2="226" y2="274" />
    <line x1="226" y1="290" x2="226" y2="370" />
    <line x1="226" y1="402" x2="226" y2="418" />
    <line x1="226" y1="466" x2="226" y2="482" />
    <line x1="226" y1="514" x2="226" y2="546" />
    <line x1="242" y1="66" x2="242" y2="130" />
    <line x1="242" y1="146" x2="242" y2="162" />
    <line x1="242" y1="194" x2="242" y2="258" />
    <line x1="242" y1="290" x2="242" y2="338" />
    <line x1="242" y1="386" x2="242" y2="434" />
    <line x1="242" y1="450" x2="242" y2="466" />
    <line x1="242" y1="482" x2="242" y2="514" />
    <line x1="258" y1="50" x2="258" y2="66" />
    <line x1="258" y1="162" x2="258" y2="178" />
    <line x1="258" y1="210" x2="258" y2="242" />
    <line x1="258" y1="306" x2="258" y2="338" />
    <line x1="258" y1="418" x2="258" y2="450" />
    <line x1="258" y1="466" x2="258" y2="482" />
    <line x1="258" y1="514" x2="258" y2="530" />
    <line x1="274" y1="2" x2="274" y2="18" />
    <line x1="274" y1="34" x2="274" y2="66" />
    <line x1="274" y1="82" x2="274" y2="98" />
    <line x1="274" y1="130" x2="274" y2="162" />
    <line x1="274" y1="178" x2="274" y2="210" />
    <line x1="274" y1="242" x2="274" y2="306" />
    <line x1="274" y1="338" x2="274" y2="402" />
    <line x1="274" y1="418" x2="274" y2="466" />
    <line x1="274" y1="482" x2="274" y2="514" />
    <line x1="274" y1="546" x2="274" y2="562" />
    <line x1="290" y1="18" x2="290" y2="34" />
    <line x1="290" y1="66" x2="290" y2="82" />
    <line x1="290" y1="98" x2="290" y2="130" />
    <line x1="290" y1="146" x2="290" y2="242" />
    <line x1="290" y1="258" x2="290" y2="290" />
    <line x1="290" y1="306" x2="290" y2="386" />
    <line x1="290" y1="402" x2="290" y2="418" />
    <line x1="290" y1="466" x2="290" y2="482" />
    <line x1="290" y1="514" x2="290" y2="562" />
    <line x1="306" y1="18" x2="306" y2="50" />
    <line x1="306" y1="82" x2="306" y2="114" />
    <line x1="306" y1="146" x2="306" y2="162" />
    <line x1="306" y1="178" x2="306" y2="226" />
    <line x1="306" y1="242" x2="306" y2="258" />
    <line x1="306" y1="290" x2="306" y2="306" />
    <line x1="306" y1="354" x2="306" y2="386" />
    <line x1="306" y1="418" x2="306" y2="466" />
    <line x1="306" y1="498" x2="306" y2="514" />
    <line x1="306" y1="530" x2="306" y2="546" />
    <line x1="322" y1="2" x2="322" y2="50" />
    <line x1="322" y1="130" x2="322" y2="178" />
    <line x1="322" y1="226" x2="322" y2="290" />
    <line x1="322" y1="338" x2="322" y2="354" />
    <line x1="322" y1="386" x2="322" y2="418" />
    <line x1="322" y1="466" x2="322" y2="482" />
    <line x1="322" y1="514" x2="322" y2="530" />
    <line x1="322" y1="546" x2="322" y2="562" />
    <line x1="338" y1="18" x2="338" y2="34" />
    <line x1="338" y1="66" x2="338" y2="82" />
    <line x1="338" y1="114" x2="338" y2="130" />
    <line x1="338" y1="178" x2="338" y2="226" />
    <line x1="338" y1="290" x2="338" y2="306" />
    <line x1="338" y1="322" x2="338" y2="338" />
    <line x1="338" y1="354" x2="338" y2="386" />
    <line x1="338" y1="418" x2="338" y2="434" />
    <line x1="338" y1="482" x2="338" y2="514" />
    <line x1="354" y1="82" x2="354" y2="114" />
    <line x1="354" y1="130" x2="354" y2="146" />
    <line x1="354" y1="162" x2="354" y2="290" />
    <line x1="354" y1="306" x2="354" y2="322" />
    <line x1="354" y1="370" x2="354" y2="386" />
    <line x1="354" y1="402" x2="354" y2="482" />
    <line x1="354" y1="498" x2="354" y2="546" />
    <line x1="370" y1="114" x2="370" y2="130" />
    <line x1="370" y1="162" x2="370" y2="178" />
    <line x1="370" y1="274" x2="370" y2="290" />
    <line x1="370" y1="306" x2="370" y2="354" />
    <line x1="370" y1="434" x2="370" y2="514" />
    <line x1="370" y1="546" x2="370" y2="562" />
    <line x1="386" y1="2" x2="386" y2="34" />
    <line x1="386" y1="50" x2="386" y2="114" />
    <line x1="386" y1="130" x2="386" y2="146" />
    <line x1="386" y1="178" x2="386" y2="242" />
    <line x1="386" y1="274" x2="386" y2="306" />
    <line x1="386" y1="322" x2="386" y2="418" />
    <line x1="386" y1="434" x2="386" y2="498" />
    <line x1="386" y1="530" x2="386" y2="546" />
    <line x1="402" y1="2" x2="402" y2="18" />
    <line x1="402" y1="34" x2="402" y2="82" />
    <line x1="402" y1="114" x2="402" y2="130" />
    <line x1="402" y1="146" x2="402" y2="178" />
    <line x1="402" y1="194" x2="402" y2="210" />
    <line x1="402" y1="226" x2="402" y2="258" />
    <line x1="402" y1="306" x2="402" y2="338" />
    <line x1="402" y1="370" x2="402" y2="402" />
    <line x1="402" y1="418" x2="402" y2="434" />
    <line x1="402" y1="498" x2="402" y2="514" />
    <line x1="402" y1="530" x2="402" y2="562" />
    <line x1="418" y1="18" x2="418" y2="50" />
    <line x1="418" y1="82" x2="418" y2="98" />
    <line x1="418" y1="178" x2="418" y2="194" />
    <line x1="418" y1="210" x2="418" y2="242" />
    <line x1="418" y1="258" x2="418" y2="274" />
    <line x1="418" y1="290" x2="418" y2="322" />
    <line x1="418" y1="354" x2="418" y2="370" />
    <line x1="418" y1="386" x2="418" y2="402" />
    <line x1="418" y1="434" x2="418" y2="498" />
    <line x1="418" y1="546" x2="418" y2="562" />
    <line x1="434" y1="34" x2="434" y2="130" />
    <line x1="434" y1="162" x2="434" y2="194" />
    <line x1="434" y1="210" x2="434" y2="226" />
    <line x1="434" y1="274" x2="434" y2="290" />
    <line x1="434" y1="370" x2="434" y2="386" />
    <line x1="434" y1="402" x2="434" y2="418" />
    <line x1="434" y1="450" x2="434" y2="482" />
    <line x1="434" y1="498" x2="434" y2="514" />
    <line x1="434" y1="530" x2="434" y2="546" />
    <line x1="450" y1="2" x2="450" y2="18" />
    <line x1="450" y1="34" x2="450" y2="66" />
    <line x1="450" y1="98" x2="450" y2="146" />
    <line x1="450" y1="162" x2="450" y2="178" />
    <line x1="450" y1="194" x2="450" y2="274" />
    <line x1="450" y1="290" x2="450" y2="338" />
    <line x1="450" y1="354" x2="450" y2="370" />
    <line x1="450" y1="402" x2="450" y2="450" />
    <line x1="450" y1="466" x2="450" y2="530" />
    <line x1="466" y1="18" x2="466" y2="34" />
    <line x1="466" y1="82" x2="466" y2="114" />
    <line x1="466" y1="178" x2="466" y2="226" />
    <line x1="466" y1="306" x2="466" y2="322" />
    <line x1="466" y1="386" x2="466" y2="402" />
    <line x1="466" y1="434" x2="466" y2="466" />
    <line x1="466" y1="498" x2="466" y2="546" />
    <line x1="482" y1="34" x2="482" y2="130" />
    <line x1="482" y1="146" x2="482" y2="178" />
    <line x1="482" y1="194" x2="482" y2="210" />
    <line x1="482" y1="226" x2="482" y2="306" />
    <line x1="482" y1="322" x2="482" y2="354" />
    <line x1="482" y1="418" x2="482" y2="450" />
    <line x1="482" y1="466" x2="482" y2="514" />
    <line x1="482" y1="530" x2="482" y2="562" />
    <line x1="498" y1="2" x2="498" y2="34" />
    <line x1="498" y1="82" x2="498" y2="98" />
    <line x1="498" y1="130" x2="498" y2="146" />
    <line x1="498" y1="178" x2="498" y2="194" />
    <line x1="498" y1="210" x2="498" y2="226" />
    <line x1="498" y1="274" x2="498" y2="306" />
    <line x1="498" y1="322" x2="498" y2="338" />
    <line x1="498" y1="370" x2="498" y2="386" />
    <line x1="498" y1="450" x2="498" y2="498" />
    <line x1="498" y1="530" x2="498" y2="546" />
    <line x1="514" y1="18" x2="514" y2="98" />
    <line x1="514" y1="114" x2="514" y2="130" />
    <line x1="514" y1="194" x2="514" y2="322" />
    <line x1="514" y1="354" x2="514" y2="370" />
    <line x1="514" y1="402" x2="514" y2="418" />
    <line x1="514" y1="434" x2="514" y2="466" />
    <line x1="514" y1="482" x2="514" y2="498" />
    <line x1="530" y1="2" x2="530" y2="34" />
    <line x1="530" y1="66" x2="530" y2="146" />
    <line x1="530" y1="178" x2="530" y2="194" />
    <line x1="530" y1="210" x2="530" y2="242" />
    <line x1="530" y1="258" x2="530" y2="322" />
    <line x1="530" y1="338" x2="530" y2="370" />
    <line x1="530" y1="386" x2="530" y2="450" />
    <line x1="530" y1="514" x2="530" y2="546" />
    <line x1="546" y1="50" x2="546" y2="66" />
    <line x1="546" y1="82" x2="546" y2="178" />
    <line x1="546" y1="194" x2="546" y2="210" />
    <line x1="546" y1="242" x2="546" y2="274" />
    <line x1="546" y1="290" x2="546" y2="306" />
    <line x1="546" y1="354" x2="546" y2="386" />
    <line x1="546" y1="418" x2="546" y2="450" />
    <line x1="546" y1="498" x2="546" y2="530" />
    <line x1="562" y1="2" x2="562" y2="562" />
  </g>
  <polyline fill="none" stroke="#ff0000" stroke-width="2" stroke-linecap="square" stroke-linejoin="round" points="282,2 282,26 218,26 218,10 170,10 170,26 154,26 154,10 90,10 90,26 106,26 106,42 90,42 90,58 138,58 138,74 154,74 154,42 218,42 218,74 202,74 202,106 106,106 106,90 90,90 90,106 74,106 74,122 90,122 90,138 106,138 106,122 138,122 138,170 202,170 202,154 218,154 218,202 186,202 186,186 154,186 154,202 170,202 170,218 186,218 186,234 202,234 202,250 234,250 234,266 266,266 266,282 234,282 234,346 266,346 266,330 282,330 282,394 314,394 314,378 330,378 330,394 346,394 346,362 378,362 378,314 394,314 394,298 410,298 410,330 442,330 442,314 426,314 426,298 442,298 442,282 474,282 474,298 458,298 458,330 474,330 474,346 410,346 410,362 394,362 394,410 426,410 426,394 458,394 458,410 474,410 474,394 522,394 522,426 490,426 490,442 506,442 506,474 554,474 554,490 522,490 522,506 490,506 490,458 474,458 474,426 458,426 458,458 442,458 442,490 426,490 426,506 410,506 410,490 394,490 394,474 410,474 410,442 394,442 394,426 362,426 362,490 346,490 346,522 330,522 330,506 314,506 314,522 298,522 298,506 282,506 282,522 266,522 266,506 250,506 250,522 234,522 234,538 282,538 282,562" />
</svg>
